# xmcd
#
# Track frame offsets:
#	150
#	15771
#	29269
#	41264
#	53590
#	72771
#	85058
#	97982
#	110108
#	123791
#	139898
#	150711
#	162116
#	173567
#	193700
#	207305
#
# Disc length: 2908 seconds
#
# Revision: 1
# Processed by: cddbd v1.5.2PL0 Copyright (c) Steve Scherf et al.
# Submitted via: EasyCDDAExtractor 16.0.8.1
#
DISCID=c00b5a10
DTITLE=Janaina dos Teclados
DYEAR=1900
DGENRE=Country
TTITLE0=Mulher forrozeira
TTITLE1=Nêga
TTITLE2=Arrochando o nó
TTITLE3=Mulher enjoada
TTITLE4=Velho cabra macho/no vai e vem
TTITLE5=Amor nao correspondido
TTITLE6=Vem
TTITLE7=Fica comigo
TTITLE8=Chorão Brega
TTITLE9=Grão de Areia/Quero ter voce, pequena
TTITLE10=Menino Lindo
TTITLE11=Forro Arretado
TTITLE12=Quem manda aqui sou eu
TTITLE13=Qual o homem que não chora/dono da ciência
TTITLE14=Arrasta, arrasta
TTITLE15=Arraiá
EXTD=
EXTT0=
EXTT1=
EXTT2=
EXTT3=
EXTT4=
EXTT5=
EXTT6=
EXTT7=
EXTT8=
EXTT9=
EXTT10=
EXTT11=
EXTT12=
EXTT13=
EXTT14=
EXTT15=
PLAYORDER=
